<svg xmlns="http://www.w3.org/2000/svg" viewBox="0 0 277.98 267.28"><defs><style>.cls-1{fill:#ffde55;}.cls-2{fill:#57565c;}</style></defs><g id="レイヤー_2" data-name="レイヤー 2"><g id="レイヤー_1-2" data-name="レイヤー 1"><path class="cls-1" d="M165.55,16.51,180.62,47A50.85,50.85,0,0,0,218.9,74.85l33.68,4.89c24.3,3.53,34,33.39,16.42,50.53L244.63,154A50.85,50.85,0,0,0,230,199l5.76,33.55c4.15,24.2-21.25,42.65-43,31.23L162.65,248a50.83,50.83,0,0,0-47.32,0L85.2,263.81c-21.73,11.42-47.13-7-43-31.23L48,199a50.84,50.84,0,0,0-14.62-45L9,130.27C-8.6,113.13,1.1,83.27,25.4,79.74l33.68-4.89A50.87,50.87,0,0,0,97.36,47l15.06-30.53C123.29-5.5,154.69-5.5,165.55,16.51Z"/><path class="cls-2" d="M202.54,161.75a7.71,7.71,0,0,1-7.71-7.71v-12.8a7.71,7.71,0,1,1,15.42,0V154A7.71,7.71,0,0,1,202.54,161.75Z"/><path class="cls-2" d="M75.44,161.75A7.71,7.71,0,0,1,67.73,154v-12.8a7.71,7.71,0,1,1,15.42,0V154A7.71,7.71,0,0,1,75.44,161.75Z"/><path class="cls-2" d="M144.26,146.33a6.37,6.37,0,0,1-5.27,2.85,6.24,6.24,0,0,1-5.27-2.85,7.71,7.71,0,0,0-12.89,8.47,21.73,21.73,0,0,0,36.32,0,7.73,7.73,0,0,0-2.21-10.68C153.63,143.27,147.86,141,144.26,146.33Z"/></g></g></svg>