<svg xmlns="http://www.w3.org/2000/svg" enable-background="new 0 0 512 512" height="512" viewBox="0 0 512 512" width="512" ><defs><style>.cls-1{fill:#fce3a0;}.cls-2{fill:#ffce71;}.cls-3{fill:#ff8e9e;}</style></defs><g id="レイヤー_2" data-name="レイヤー 2"><g id="Layer_1" data-name="Layer 1"><path class="cls-1" d="M266.69,15.07A247.61,247.61,0,0,0,157.07,1.23a13.46,13.46,0,0,0-5,25.34A199.84,199.84,0,0,1,248.89,273C213.82,369.3,113,421.73,16.36,399.47A13.4,13.4,0,0,0,.81,408h0a13.53,13.53,0,0,0,3.08,14.08A247.62,247.62,0,0,0,96.76,482C225.2,528.7,368,463,415.16,333.47c47-129-19.47-271.45-148.47-318.4Z"/><path class="cls-2" d="M210.81,36.12a209.67,209.67,0,0,0-62.55-12.5,12.74,12.74,0,0,0,3.83,2.95A199.85,199.85,0,0,1,248.89,273C213.82,369.3,113,421.73,16.36,399.47a13.16,13.16,0,0,0-4.83-.21,209,209,0,0,0,56,30.64C175.82,469.34,296.26,414,336,304.67A209.42,209.42,0,0,0,210.81,36.12Z"/><ellipse class="cls-3" cx="277.25" cy="295.91" rx="17.9" ry="22.47" transform="translate(-19.49 572.28) rotate(-89.83)"/><ellipse class="cls-3" cx="398.98" cy="296.39" rx="17.9" ry="22.47" transform="translate(101.4 694.48) rotate(-89.83)"/><path d="M291.12,276V266a7.5,7.5,0,0,0-15,0v10a7.5,7.5,0,0,0,15,0Z"/><path d="M399.12,276V266a7.5,7.5,0,0,0-15,0v10a7.5,7.5,0,0,0,15,0Z"/><path d="M338.12,311.5a25.33,25.33,0,0,0,22.77-14.26,7.5,7.5,0,1,0-13.54-6.47,10.3,10.3,0,0,1-18.46,0,7.5,7.5,0,1,0-13.54,6.47,25.33,25.33,0,0,0,22.77,14.26Z"/></g></g></svg>