<svg id="コンポーネント_1_1" data-name="コンポーネント 1 – 1" xmlns="http://www.w3.org/2000/svg" width="1346.56" height="1346.56" viewBox="0 0 1346.56 1346.56">
  <g id="rainbow">
    <path id="パス_14" data-name="パス 14" d="M650.118,933.247C523.809,922.136,423.329,821.076,413.139,694.508q-.845-10.506-.862-21.228c0-.377.014-.75.014-1.124A431.069,431.069,0,0,1,673.28,0q-8.628,0-17.2.219C292.745,9.377,0,307.785,0,673.28c0,371.247,302.033,673.28,673.28,673.28a669.094,669.094,0,0,0,312.879-77.269q5.312-2.8,10.561-5.7L667.271,934.147c-5.76-.138-11.488-.4-17.153-.9Z" transform="translate(0 0)" fill="rgba(255,255,255,0.2)"/>
    <path id="パス_15" data-name="パス 15" d="M1137.1,673.28C1137.1,302.033,835.064,0,463.818,0A431.069,431.069,0,0,0,202.829,672.156c.607-143.629,117.219-259.878,260.989-259.878,144.147,0,261,116.855,261,261s-116.855,261-261,261c-2.013,0-4.007-.089-6.009-.138l329.449,329.449C995.584,1149,1137.1,927.374,1137.1,673.28Z" transform="translate(209.462 0)" fill="rgba(255,255,255,0.2)"/>
    <path id="パス_16" data-name="パス 16" d="M356.872,587.227c0-.377.014-.75.014-1.124a430.9,430.9,0,0,1,27.628-535.76c-207.018,90.328-352.1,296.967-352.1,536.885,0,322.825,262.636,585.461,585.461,585.461a581.88,581.88,0,0,0,258.382-60.2L611.927,848.156c-141.4-3.165-255.055-118.771-255.055-260.929Z" transform="translate(55.406 86.053)" fill="rgba(255,255,255,0.2)"/>
    <path id="パス_17" data-name="パス 17" d="M1049.277,617.874c0-322.825-262.636-585.461-585.461-585.461A582.08,582.08,0,0,0,230.457,80.987a430.9,430.9,0,0,0-27.628,535.76c.607-143.629,117.218-259.878,260.989-259.878,144.147,0,261,116.855,261,261s-116.855,261-261,261c-1.989,0-3.969-.03-5.947-.076L722.2,1143.127c193.59-95.614,327.076-295.124,327.076-525.253Z" transform="translate(209.464 55.406)" fill="rgba(255,255,255,0.2)"/>
    <path id="パス_18" data-name="パス 18" d="M301.466,487.712c0-.377.014-.75.014-1.124a431.055,431.055,0,0,1-60.942-378.028C133.11,199.911,64.826,335.979,64.826,487.712c0,274.4,223.242,497.642,497.642,497.642a494.88,494.88,0,0,0,192.154-38.611l-198.1-198.1c-141.4-3.165-255.055-118.771-255.055-260.929Z" transform="translate(110.812 185.568)" fill="rgba(255,255,255,0.2)"/>
    <path id="パス_19" data-name="パス 19" d="M961.432,562.468c0-274.4-223.242-497.642-497.642-497.642A495.416,495.416,0,0,0,141.859,183.315,431.058,431.058,0,0,0,202.8,561.344c.607-143.629,117.218-259.878,260.989-259.878,144.147,0,261,116.855,261,261s-116.855,261-261,261c-1.989,0-3.969-.03-5.947-.076l198.1,198.1C835.215,946.173,961.432,768.79,961.432,562.468Z" transform="translate(209.49 110.812)" fill="rgba(255,255,255,0.2)"/>
    <path id="パス_20" data-name="パス 20" d="M463.362,246.06c144.147,0,261,116.855,261,261s-116.855,261-261,261c-1.989,0-3.969-.03-5.947-.076L587.178,897.751C752.823,845.138,873.185,689.9,873.185,507.062c0-225.978-183.845-409.823-409.823-409.823-141.771,0-266.944,72.367-340.558,182.092a431.047,431.047,0,0,0,79.569,226.6C202.98,362.308,319.591,246.06,463.362,246.06Z" transform="translate(209.918 166.218)" fill="rgba(255,255,255,0.2)"/>
    <path id="パス_21" data-name="パス 21" d="M501.115,653.1c-141.4-3.162-255.055-118.768-255.055-260.926,0-.377.014-.75.014-1.124a431.047,431.047,0,0,1-79.569-226.6A407.456,407.456,0,0,0,97.239,392.177C97.239,618.155,281.084,802,507.062,802a408.32,408.32,0,0,0,123.816-19.134Z" transform="translate(166.218 281.104)" fill="rgba(255,255,255,0.2)"/>
    <path id="パス_22" data-name="パス 22" d="M416.307,536.279A234.342,234.342,0,0,1,220.129,340.1l-2.658-2.658a430.6,430.6,0,0,1-75.253-121.852,321.119,321.119,0,0,0-12.566,89.16c0,177.554,144.45,322,322,322a323.14,323.14,0,0,0,51.064-4.064Z" transform="translate(221.624 368.528)" fill="rgba(255,255,255,0.2)"/>
    <path id="パス_23" data-name="パス 23" d="M212.2,487.005a236.109,236.109,0,0,1-2.658-35.349c0-129.338,104.847-234.185,234.185-234.185S677.913,322.318,677.913,451.656,573.065,685.841,443.728,685.841a236.113,236.113,0,0,1-35.349-2.658L494.791,769.6c153.372-24.544,270.94-157.762,270.94-317.94,0-177.554-144.45-322-322-322-146.631,0-270.675,98.524-309.438,232.844a430.671,430.671,0,0,0,75.253,121.851Z" transform="translate(229.552 221.624)" fill="rgba(255,255,255,0.2)"/>
  </g>
  <circle id="楕円形_6" data-name="楕円形 6" cx="271.5" cy="271.5" r="271.5" transform="translate(402 402)" fill="#c1c5ce"/>
</svg>
